<!DOCTYPE svg PUBLIC "-//W3C//DTD SVG 1.1//EN" "http://www.w3.org/Graphics/SVG/1.1/DTD/svg11.dtd"[]><svg xmlns="http://www.w3.org/2000/svg" version="1.1" width="132" height="89" style="shape-rendering:geometricPrecision; text-rendering:geometricPrecision; image-rendering:optimizeQuality; fill-rule:evenodd; clip-rule:evenodd" xmlns:xlink="http://www.w3.org/1999/xlink" viewBox="0 0 751 512"><g><path class="is-animate" style="opacity:0.458" fill="#d9d9d9" d="M 368.5,0.5 C 372.767,0.202986 376.934,0.536319 381,1.5C 380.833,31.1625 380.333,60.8292 379.5,90.5C 376.5,90.5 373.5,90.5 370.5,90.5C 369.732,60.5085 369.066,30.5085 368.5,0.5 Z" /></g><g><path class="is-animate" style="opacity:0.457" fill="#d9d9d9" d="M 335.5,2.5 C 338.5,2.5 341.5,2.5 344.5,2.5C 347.386,32.1299 349.553,61.7966 351,91.5C 347.725,93.0911 344.725,92.7577 342,90.5C 338.586,61.5197 335.419,32.5197 332.5,3.5C 333.791,3.73731 334.791,3.40397 335.5,2.5 Z" /></g><g><path class="is-animate" style="opacity:0.458" fill="#d9d9d9" d="M 405.5,2.5 C 409.548,2.39458 413.548,2.72791 417.5,3.5C 414.459,33.2067 411.125,62.8734 407.5,92.5C 404.813,92.6641 402.146,92.4974 399.5,92C 398.866,89.9255 398.532,87.7588 398.5,85.5C 400.779,57.8174 403.112,30.1507 405.5,2.5 Z" /></g><g><path class="is-animate" style="opacity:0.459" fill="#d9d9d9" d="M 307.5,6.5 C 313.365,35.6719 319.032,65.0053 324.5,94.5C 321.637,95.8741 318.637,96.8741 315.5,97.5C 308.724,69.1211 302.39,40.6211 296.5,12C 296.585,10.8926 296.919,9.8926 297.5,9C 300.991,8.26201 304.325,7.42868 307.5,6.5 Z" /></g><g><path class="is-animate" style="opacity:0.461" fill="#d9d9d9" d="M 441.5,6.5 C 445.083,7.51776 448.75,8.3511 452.5,9C 453.059,9.72472 453.392,10.5581 453.5,11.5C 447.673,40.3017 441.34,68.9684 434.5,97.5C 431.363,96.8741 428.363,95.8741 425.5,94.5C 431.219,65.2396 436.552,35.9063 441.5,6.5 Z" /></g><g><path class="is-animate" style="opacity:0.46" fill="#d9d9d9" d="M 269.5,15.5 C 272.346,15.8087 273.846,17.4754 274,20.5C 282.02,47.7227 289.52,75.056 296.5,102.5C 293.762,102.851 291.096,103.518 288.5,104.5C 278.782,76.3465 269.449,48.0131 260.5,19.5C 263.412,17.76 266.412,16.4267 269.5,15.5 Z" /></g><g><path class="is-animate" style="opacity:0.461" fill="#d9d9d9" d="M 477.5,15.5 C 481.737,16.2234 485.737,17.5567 489.5,19.5C 480.563,47.9786 471.229,76.312 461.5,104.5C 458.291,103.785 455.291,102.618 452.5,101C 461.22,72.6232 469.553,44.1232 477.5,15.5 Z" /></g><g><path class="is-animate" style="opacity:0.465" fill="#dadada" d="M 234.5,27.5 C 235.833,27.5 237.167,27.5 238.5,27.5C 249.167,55.5 259.833,83.5 270.5,111.5C 267.523,112.071 264.69,113.071 262,114.5C 250.029,87.3918 238.196,60.2251 226.5,33C 226.645,32.228 226.978,31.5613 227.5,31C 230.069,30.1016 232.402,28.935 234.5,27.5 Z" /></g><g><path class="is-animate" style="opacity:0.461" fill="#d9d9d9" d="M 511.5,27.5 C 516.005,28.0899 520.005,29.7566 523.5,32.5C 511.942,59.9499 500.109,87.2832 488,114.5C 485.31,113.071 482.477,112.071 479.5,111.5C 490.167,83.5 500.833,55.5 511.5,27.5 Z" /></g><g><path class="is-animate" style="opacity:0.464" fill="#d9d9d9" d="M 202.5,42.5 C 203.496,42.4142 204.329,42.7476 205,43.5C 218.372,69.7451 231.872,95.9117 245.5,122C 242.995,123.753 240.329,125.253 237.5,126.5C 222.342,100.859 207.676,74.8593 193.5,48.5C 196.357,46.2417 199.357,44.2417 202.5,42.5 Z" /></g><g><path class="is-animate" style="opacity:0.462" fill="#d9d9d9" d="M 545.5,42.5 C 549.628,43.7292 553.295,45.7292 556.5,48.5C 542.324,74.8593 527.658,100.859 512.5,126.5C 509.671,125.253 507.005,123.753 504.5,122C 518.307,95.5517 531.974,69.0517 545.5,42.5 Z" /></g><g><path class="is-animate" style="opacity:0.464" fill="#dadada" d="M 171.5,60.5 C 188.379,85.2325 204.713,110.399 220.5,136C 218.561,138.307 216.228,140.14 213.5,141.5C 196.472,117.638 179.639,93.6384 163,69.5C 162.333,68.5 162.333,67.5 163,66.5C 165.988,64.6009 168.821,62.6009 171.5,60.5 Z" /></g><g><path class="is-animate" style="opacity:0.465" fill="#d9d9d9" d="M 577.5,60.5 C 580.643,62.2417 583.643,64.2417 586.5,66.5C 587.583,67.365 587.749,68.365 587,69.5C 570.5,93.1667 554,116.833 537.5,140.5C 534.37,140.424 531.704,138.924 529.5,136C 545.314,110.692 561.314,85.5256 577.5,60.5 Z" /></g><g><path class="is-animate" style="opacity:0.467" fill="#d9d9d9" d="M 140.5,82.5 C 142.39,82.2965 143.89,82.9632 145,84.5C 162.833,107 180.667,129.5 198.5,152C 196.295,154.54 193.795,156.707 191,158.5C 172,136.167 153,113.833 134,91.5C 133.333,90.5 133.333,89.5 134,88.5C 136.664,87.0016 138.83,85.0016 140.5,82.5 Z" /></g><g><path class="is-animate" style="opacity:0.467" fill="#d9d9d9" d="M 606.5,82.5 C 609.861,83.684 612.861,85.5173 615.5,88C 616.517,89.0495 616.684,90.2161 616,91.5C 597,113.833 578,136.167 559,158.5C 556.205,156.707 553.705,154.54 551.5,152C 570.047,128.958 588.381,105.792 606.5,82.5 Z" /></g><g><path class="is-animate" style="opacity:0.469" fill="#d9d9d9" d="M 113.5,106.5 C 114.239,106.369 114.906,106.536 115.5,107C 135.305,127.805 155.471,148.305 176,168.5C 176.374,169.416 176.874,170.25 177.5,171C 175.333,173.167 173.167,175.333 171,177.5C 149.667,156.833 128.333,136.167 107,115.5C 106.333,114.833 106.333,114.167 107,113.5C 109.372,111.297 111.539,108.963 113.5,106.5 Z" /></g><g><path class="is-animate" style="opacity:0.469" fill="#dadada" d="M 634.5,106.5 C 637.731,108.22 640.564,110.553 643,113.5C 643.667,114.167 643.667,114.833 643,115.5C 621.667,136.167 600.333,156.833 579,177.5C 576.065,175.273 574.065,172.606 573,169.5C 593.507,148.467 614.007,127.467 634.5,106.5 Z" /></g><g><path style="opacity:0.711" fill="#d8d8d8" d="M 372.5,124.5 C 374.167,124.5 375.833,124.5 377.5,124.5C 377.5,127.167 377.5,129.833 377.5,132.5C 375.833,132.5 374.167,132.5 372.5,132.5C 372.5,129.833 372.5,127.167 372.5,124.5 Z" /></g><g><path style="opacity:0.807" fill="#d8d8d8" d="M 350.5,125.5 C 352.167,125.5 353.833,125.5 355.5,125.5C 355.232,128.119 355.565,130.619 356.5,133C 354.866,133.494 353.199,133.66 351.5,133.5C 351.599,130.763 351.265,128.096 350.5,125.5 Z" /></g><g><path style="opacity:0.827" fill="#d8d8d8" d="M 394.5,125.5 C 396.288,125.215 397.955,125.548 399.5,126.5C 398.626,128.747 398.292,131.08 398.5,133.5C 396.712,133.785 395.045,133.452 393.5,132.5C 394.374,130.253 394.708,127.92 394.5,125.5 Z" /></g><g><path style="opacity:0.762" fill="#d8d8d8" d="M 331.5,127.5 C 332.75,127.577 333.583,128.244 334,129.5C 334.497,131.81 334.663,134.143 334.5,136.5C 333.167,136.5 331.833,136.5 330.5,136.5C 330.277,134.658 329.943,132.825 329.5,131C 329.862,129.566 330.528,128.399 331.5,127.5 Z" /></g><g><path style="opacity:0.818" fill="#d8d8d8" d="M 416.5,127.5 C 418.844,127.506 420.178,128.673 420.5,131C 420.057,132.825 419.723,134.658 419.5,136.5C 417.571,136.769 415.905,136.269 414.5,135C 415.22,132.509 415.887,130.009 416.5,127.5 Z" /></g><g><path style="opacity:0.805" fill="#d8d8d8" d="M 308.5,132.5 C 309.978,132.238 311.311,132.571 312.5,133.5C 313.167,135.5 313.833,137.5 314.5,139.5C 313.264,140.357 311.931,141.023 310.5,141.5C 309.574,138.956 308.574,136.456 307.5,134C 308.056,133.617 308.389,133.117 308.5,132.5 Z" /></g><g><path style="opacity:0.762" fill="#d8d8d8" d="M 437.5,132.5 C 438.833,132.5 440.167,132.5 441.5,132.5C 441.736,135.829 440.903,138.829 439,141.5C 437.795,140.929 436.628,140.262 435.5,139.5C 436.325,137.199 436.992,134.865 437.5,132.5 Z" /></g><g><path class="is-animate" style="opacity:0.467" fill="#d9d9d9" d="M 88.5,133.5 C 89.552,133.351 90.552,133.517 91.5,134C 113.833,153 136.167,172 158.5,191C 156.707,193.795 154.54,196.295 152,198.5C 128.664,179.993 105.498,161.326 82.5,142.5C 84.5258,139.482 86.5258,136.482 88.5,133.5 Z" /></g><g><path class="is-animate" style="opacity:0.467" fill="#d9d9d9" d="M 658.5,133.5 C 659.822,133.33 660.989,133.663 662,134.5C 662.953,136.455 664.287,138.122 666,139.5C 666.982,140.759 667.315,142.092 667,143.5C 643.977,162.024 620.81,180.357 597.5,198.5C 595.31,196.144 593.31,193.644 591.5,191C 614.025,171.969 636.359,152.802 658.5,133.5 Z" /></g><g><path style="opacity:0.78" fill="#d8d8d8" d="M 289.5,138.5 C 291.789,139.714 293.123,141.714 293.5,144.5C 293.566,146.266 292.732,147.266 291,147.5C 287.398,144.809 286.898,141.809 289.5,138.5 Z" /></g><g><path style="opacity:0.738" fill="#d8d8d8" d="M 458.5,138.5 C 460.311,138.572 461.644,139.405 462.5,141C 462.077,143.633 460.91,145.799 459,147.5C 457.268,147.266 456.434,146.266 456.5,144.5C 456.977,142.403 457.643,140.403 458.5,138.5 Z" /></g><g><path style="opacity:0.72" fill="#d8d8d8" d="M 478.5,146.5 C 483.149,147.99 483.815,150.657 480.5,154.5C 478.453,155.904 476.786,155.571 475.5,153.5C 476.788,151.261 477.788,148.928 478.5,146.5 Z" /></g><g><path style="opacity:0.816" fill="#d8d8d8" d="M 270.5,146.5 C 272.059,148.608 273.392,150.941 274.5,153.5C 273.214,155.571 271.547,155.904 269.5,154.5C 266.504,151.219 266.837,148.552 270.5,146.5 Z" /></g><g><path style="opacity:0.705" fill="#d8d8d8" d="M 498.5,156.5 C 502.836,159.165 502.503,162.165 497.5,165.5C 496.328,165.081 495.328,164.415 494.5,163.5C 495.592,160.976 496.926,158.643 498.5,156.5 Z" /></g><g><path style="opacity:0.78" fill="#d8d8d8" d="M 250.5,156.5 C 252.88,158.237 254.547,160.57 255.5,163.5C 254.672,164.415 253.672,165.081 252.5,165.5C 250.24,163.823 248.573,161.657 247.5,159C 248.571,158.148 249.571,157.315 250.5,156.5 Z" /></g><g><path class="is-animate" style="opacity:0.464" fill="#d9d9d9" d="M 66.5,162.5 C 68.7834,162.608 70.7834,163.441 72.5,165C 95.5,181.167 118.5,197.333 141.5,213.5C 139.774,215.228 138.441,217.228 137.5,219.5C 136.635,220.583 135.635,220.749 134.5,220C 109.833,204 85.1667,188 60.5,172C 62.6358,168.89 64.6358,165.723 66.5,162.5 Z" /></g><g><path class="is-animate" style="opacity:0.468" fill="#dadada" d="M 680.5,162.5 C 684.606,164.444 687.606,167.61 689.5,172C 664.833,188 640.167,204 615.5,220C 614.365,220.749 613.365,220.583 612.5,219.5C 611.167,217.5 609.833,215.5 608.5,213.5C 632.529,196.49 656.529,179.49 680.5,162.5 Z" /></g><g><path style="opacity:0.752" fill="#d8d8d8" d="M 231.5,168.5 C 234.37,169.528 236.37,171.528 237.5,174.5C 236.833,175.833 235.833,176.833 234.5,177.5C 232.844,175.54 231.177,173.54 229.5,171.5C 230.193,170.482 230.859,169.482 231.5,168.5 Z" /></g><g><path style="opacity:0.692" fill="#d8d8d8" d="M 516.5,168.5 C 518.196,168.685 519.529,169.519 520.5,171C 518.994,173.333 517.327,175.5 515.5,177.5C 514.167,176.833 513.167,175.833 512.5,174.5C 513.844,172.471 515.177,170.471 516.5,168.5 Z" /></g><g><path style="opacity:0.731" fill="#d8d8d8" d="M 214.5,181.5 C 216.916,182.916 218.916,184.916 220.5,187.5C 219.833,188.833 218.833,189.833 217.5,190.5C 213.541,188.059 212.541,185.059 214.5,181.5 Z" /></g><g><path style="opacity:0.721" fill="#d8d8d8" d="M 533.5,181.5 C 535.384,181.712 536.717,182.712 537.5,184.5C 535.823,186.54 534.156,188.54 532.5,190.5C 531.167,189.833 530.167,188.833 529.5,187.5C 531.252,185.754 532.585,183.754 533.5,181.5 Z" /></g><g><path class="is-animate" style="opacity:0.459" fill="#d9d9d9" d="M 47.5,193.5 C 74.2979,207.397 100.631,222.064 126.5,237.5C 124.8,240.039 123.3,242.705 122,245.5C 95.2281,231.866 68.7281,217.866 42.5,203.5C 44.1799,200.14 45.8466,196.807 47.5,193.5 Z" /></g><g><path class="is-animate" style="opacity:0.461" fill="#dadada" d="M 700.5,193.5 C 701.496,193.414 702.329,193.748 703,194.5C 704.5,197.5 706,200.5 707.5,203.5C 681.272,217.866 654.772,231.866 628,245.5C 625.446,242.611 624.279,239.445 624.5,236C 650.057,222.059 675.39,207.892 700.5,193.5 Z" /></g><g><path style="opacity:0.711" fill="#d8d8d8" d="M 198.5,196.5 C 202.568,197.685 204.234,200.185 203.5,204C 200.72,204.269 198.554,203.102 197,200.5C 196.7,198.934 197.2,197.601 198.5,196.5 Z" /></g><g><path style="opacity:0.674" fill="#d8d8d8" d="M 549.5,196.5 C 551.384,196.712 552.717,197.712 553.5,199.5C 552.129,201.705 550.296,203.372 548,204.5C 546.5,204.333 545.667,203.5 545.5,202C 546.65,200.019 547.984,198.186 549.5,196.5 Z" /></g><g><path style="opacity:0.702" fill="#d8d8d8" d="M 183.5,212.5 C 185.861,213.435 188.028,214.768 190,216.5C 190.507,217.996 190.007,219.163 188.5,220C 186.196,219.427 184.029,218.26 182,216.5C 181.7,214.934 182.2,213.601 183.5,212.5 Z" /></g><g><path style="opacity:0.733" fill="#d8d8d8" d="M 564.5,212.5 C 566.384,212.712 567.717,213.712 568.5,215.5C 566.5,217.167 564.5,218.833 562.5,220.5C 561.167,219.833 560.167,218.833 559.5,217.5C 561.006,215.599 562.673,213.932 564.5,212.5 Z" /></g><g><path class="is-animate" style="opacity:0.461" fill="#d9d9d9" d="M 31.5,226.5 C 59.3664,237.764 87.0331,249.597 114.5,262C 113.071,264.69 112.071,267.523 111.5,270.5C 83.6418,260.241 55.9751,249.407 28.5,238C 27.9781,237.439 27.6448,236.772 27.5,236C 28.9863,232.865 30.3196,229.698 31.5,226.5 Z" /></g><g><path class="is-animate" style="opacity:0.461" fill="#dadada" d="M 715.5,226.5 C 716.822,226.33 717.989,226.663 719,227.5C 720.029,230.39 721.195,233.224 722.5,236C 722.355,236.772 722.022,237.439 721.5,238C 694.025,249.407 666.358,260.241 638.5,270.5C 638.076,267.646 637.076,264.979 635.5,262.5C 635.833,262.167 636.167,261.833 636.5,261.5C 663.041,250.058 689.374,238.391 715.5,226.5 Z" /></g><g><path style="opacity:0.719" fill="#d8d8d8" d="M 170.5,229.5 C 172.764,230.581 174.931,231.915 177,233.5C 177.507,234.996 177.007,236.163 175.5,237C 173.117,236.554 170.95,235.388 169,233.5C 168.7,231.934 169.2,230.601 170.5,229.5 Z" /></g><g><path style="opacity:0.776" fill="#d7d7d7" d="M 577.5,229.5 C 579.384,229.712 580.717,230.712 581.5,232.5C 579.909,234.633 577.909,236.299 575.5,237.5C 574.167,236.833 573.167,235.833 572.5,234.5C 574.006,232.599 575.673,230.932 577.5,229.5 Z" /></g><g><path style="opacity:0.722" fill="#d8d8d8" d="M 158.5,247.5 C 160.89,248.446 163.056,249.779 165,251.5C 165.388,253.076 164.888,254.409 163.5,255.5C 160.827,254.499 158.493,252.999 156.5,251C 157.823,250.184 158.489,249.017 158.5,247.5 Z" /></g><g><path style="opacity:0.797" fill="#d7d7d7" d="M 590.5,247.5 C 591.364,248.688 592.364,249.855 593.5,251C 591.507,252.999 589.173,254.499 586.5,255.5C 585.447,254.562 584.78,253.395 584.5,252C 586.358,250.245 588.358,248.745 590.5,247.5 Z" /></g><g><path class="is-animate" style="opacity:0.462" fill="#d9d9d9" d="M 18.5,260.5 C 47.361,269.231 76.0277,278.565 104.5,288.5C 103.518,291.096 102.851,293.762 102.5,296.5C 74.0555,289.187 45.7222,281.354 17.5,273C 16.572,272.612 15.9054,271.945 15.5,271C 16.7372,267.549 17.7372,264.049 18.5,260.5 Z" /></g><g><path class="is-animate" style="opacity:0.462" fill="#dadada" d="M 729.5,260.5 C 730.75,260.577 731.583,261.244 732,262.5C 732.631,265.393 733.464,268.226 734.5,271C 734.095,271.945 733.428,272.612 732.5,273C 704.278,281.354 675.944,289.187 647.5,296.5C 647.145,293.933 646.479,291.433 645.5,289C 645.905,288.055 646.572,287.388 647.5,287C 675.04,278.43 702.373,269.597 729.5,260.5 Z" /></g><g><path style="opacity:0.738" fill="#d8d8d8" d="M 148.5,267.5 C 151.386,267.61 153.72,268.777 155.5,271C 155.22,272.395 154.553,273.562 153.5,274.5C 151.167,273.333 148.833,272.167 146.5,271C 147.305,269.887 147.972,268.721 148.5,267.5 Z" /></g><g><path style="opacity:0.771" fill="#d8d8d8" d="M 598.5,267.5 C 601.114,267.277 602.781,268.444 603.5,271C 601.167,272.167 598.833,273.333 596.5,274.5C 595.155,273.653 594.155,272.487 593.5,271C 595.233,269.811 596.9,268.644 598.5,267.5 Z" /></g><g><path style="opacity:0.776" fill="#d8d8d8" d="M 139.5,287.5 C 141.937,287.756 144.271,288.423 146.5,289.5C 147.948,291.808 147.282,293.141 144.5,293.5C 142.726,293.113 141.059,292.447 139.5,291.5C 138.708,290.3 138.708,288.967 139.5,287.5 Z" /></g><g><path style="opacity:0.775" fill="#d8d8d8" d="M 606.5,287.5 C 612.318,288.603 612.651,290.436 607.5,293C 605.075,293.986 603.409,293.319 602.5,291C 603.686,289.588 605.019,288.421 606.5,287.5 Z" /></g><g><path class="is-animate" style="opacity:0.461" fill="#d9d9d9" d="M 9.5,296.5 C 39.0037,302.067 68.337,308.401 97.5,315.5C 96.8741,318.637 95.8741,321.637 94.5,324.5C 65.2012,318.894 35.8679,313.394 6.5,308C 7.56408,304.178 8.56408,300.345 9.5,296.5 Z" /></g><g><path style="opacity:0.463" fill="#d9d9d9" d="M 735.5,296.5 C 737.467,296.261 739.301,296.594 741,297.5C 741.936,301.114 742.436,304.78 742.5,308.5C 713.438,313.51 684.438,318.844 655.5,324.5C 653.75,321.435 652.75,318.102 652.5,314.5C 680.392,308.99 708.058,302.99 735.5,296.5 Z" /></g><g><path style="opacity:0.771" fill="#d8d8d8" d="M 133.5,307.5 C 136.144,308.493 138.81,309.493 141.5,310.5C 141.023,311.931 140.357,313.264 139.5,314.5C 137.5,313.833 135.5,313.167 133.5,312.5C 132.334,310.833 132.334,309.166 133.5,307.5 Z" /></g><g><path style="opacity:0.778" fill="#d7d7d7" d="M 615.5,307.5 C 617.561,308.751 617.894,310.418 616.5,312.5C 614.5,313.167 612.5,313.833 610.5,314.5C 609.643,313.264 608.977,311.931 608.5,310.5C 611,309.641 613.333,308.641 615.5,307.5 Z" /></g><g><path style="opacity:0.797" fill="#d8d8d8" d="M 128.5,329.5 C 131.206,329.575 133.873,329.908 136.5,330.5C 136.845,333.488 135.512,334.821 132.5,334.5C 128.348,334.707 127.015,333.04 128.5,329.5 Z" /></g><g><path style="opacity:0.808" fill="#d9d9d9" d="M 616.5,329.5 C 619.288,329.077 621.288,330.077 622.5,332.5C 619.807,334.27 616.807,334.937 613.5,334.5C 613.5,333.167 613.5,331.833 613.5,330.5C 614.791,330.737 615.791,330.404 616.5,329.5 Z" /></g><g><path class="is-animate"     style="opacity:0.461" fill="#d9d9d9" d="M 3.5,332.5 C 32.5042,335.556 61.5042,338.723 90.5,342C 92.7577,344.725 93.0911,347.725 91.5,351C 61.7989,349.523 32.1322,347.356 2.5,344.5C 2.39458,340.452 2.72791,336.452 3.5,332.5 Z" /></g><g><path style="opacity:0.463" fill="#d9d9d9" d="M 739.5,332.5 C 741.833,332.5 744.167,332.5 746.5,332.5C 747.272,336.452 747.605,340.452 747.5,344.5C 717.534,347.241 687.534,349.574 657.5,351.5C 656.989,347.97 657.656,344.804 659.5,342C 686.351,339.143 713.018,335.976 739.5,332.5 Z" /></g><g><path style="opacity:0.825" fill="#d8d8d8" d="M 125.5,350.5 C 128.096,351.265 130.763,351.599 133.5,351.5C 133.66,353.199 133.494,354.866 133,356.5C 130.619,355.565 128.119,355.232 125.5,355.5C 125.5,353.833 125.5,352.167 125.5,350.5 Z" /></g><g><path style="opacity:0.807" fill="#d8d8d8" d="M 621.5,350.5 C 622.5,350.5 623.5,350.5 624.5,350.5C 624.5,352.167 624.5,353.833 624.5,355.5C 621.881,355.232 619.381,355.565 617,356.5C 616.506,354.866 616.34,353.199 616.5,351.5C 618.415,351.784 620.081,351.451 621.5,350.5 Z" /></g><g><path class="is-animate" style="opacity:0.461" fill="#d9d9d9" d="M 1.5,368.5 C 31.1747,369.076 60.8413,369.743 90.5,370.5C 90.5,373.5 90.5,376.5 90.5,379.5C 60.5007,380.177 30.5007,380.844 0.5,381.5C 0.230706,377.069 0.564039,372.735 1.5,368.5 Z" /></g><g><path style="opacity:0.461" fill="#d9d9d9" d="M 732.5,368.5 C 737.833,368.5 743.167,368.5 748.5,368.5C 749.833,372.833 749.833,377.167 748.5,381.5C 718.501,380.813 688.501,380.146 658.5,379.5C 658.5,376.5 658.5,373.5 658.5,370.5C 683.324,369.914 707.991,369.247 732.5,368.5 Z" /></g><g><path style="opacity:0.719" fill="#d8d8d8" d="M 124.5,372.5 C 127.167,372.5 129.833,372.5 132.5,372.5C 132.5,374.167 132.5,375.833 132.5,377.5C 129.833,377.5 127.167,377.5 124.5,377.5C 124.5,375.833 124.5,374.167 124.5,372.5 Z" /></g><g><path style="opacity:0.698" fill="#d8d8d8" d="M 617.5,372.5 C 620.167,372.5 622.833,372.5 625.5,372.5C 625.5,374.167 625.5,375.833 625.5,377.5C 622.833,377.5 620.167,377.5 617.5,377.5C 617.5,375.833 617.5,374.167 617.5,372.5 Z" /></g><g><path style="opacity:0.827" fill="#d8d8d8" d="M 131.5,393.5 C 133.256,394.552 133.923,396.219 133.5,398.5C 131.08,398.292 128.747,398.626 126.5,399.5C 125.548,397.955 125.215,396.288 125.5,394.5C 127.735,394.795 129.735,394.461 131.5,393.5 Z" /></g><g><path style="opacity:0.853" fill="#d7d7d7" d="M 616.5,393.5 C 619.096,394.265 621.763,394.599 624.5,394.5C 624.785,396.288 624.452,397.955 623.5,399.5C 621.253,398.626 618.92,398.292 616.5,398.5C 616.5,396.833 616.5,395.167 616.5,393.5 Z" /></g><g><path class="is-animate" style="opacity:0.46" fill="#d9d9d9" d="M 79.5,398.5 C 83.5138,398.334 87.5138,398.501 91.5,399C 92.4438,401.719 92.7771,404.552 92.5,407.5C 62.873,411.125 33.2064,414.459 3.5,417.5C 2.72791,413.548 2.39458,409.548 2.5,405.5C 28.3223,403.321 53.989,400.988 79.5,398.5 Z" /></g><g><path style="opacity:0.46" fill="#d9d9d9" d="M 657.5,398.5 C 687.539,400.392 717.539,402.726 747.5,405.5C 747.605,409.548 747.272,413.548 746.5,417.5C 716.793,414.459 687.127,411.125 657.5,407.5C 657.5,404.5 657.5,401.5 657.5,398.5 Z" /></g><g><path style="opacity:0.785" fill="#d7d7d7" d="M 134.5,414.5 C 136.213,415.635 136.88,417.302 136.5,419.5C 134.658,419.723 132.825,420.057 131,420.5C 129.129,420.291 127.962,419.291 127.5,417.5C 129.621,415.982 131.954,414.982 134.5,414.5 Z" /></g><g><path style="opacity:0.808" fill="#d7d7d7" d="M 614.5,414.5 C 616.746,415.21 619.08,415.71 621.5,416C 622.698,418.432 621.864,419.932 619,420.5C 617.175,420.057 615.342,419.723 613.5,419.5C 613.366,417.708 613.699,416.042 614.5,414.5 Z" /></g><g><path class="is-animate" style="opacity:0.467" fill="#d9d9d9" d="M 93.5,425.5 C 94.4972,425.47 95.1639,425.97 95.5,427C 96.1043,429.524 96.771,432.024 97.5,434.5C 69.1211,441.276 40.6211,447.61 12,453.5C 10.8926,453.415 9.8926,453.081 9,452.5C 8.41561,448.905 7.58227,445.405 6.5,442C 35.6671,436.665 64.6671,431.165 93.5,425.5 Z" /></g><g><path style="opacity:0.459" fill="#d9d9d9" d="M 654.5,425.5 C 683.787,431.048 713.12,436.381 742.5,441.5C 742.436,445.22 741.936,448.886 741,452.5C 740.107,453.081 739.107,453.415 738,453.5C 709.379,447.61 680.879,441.276 652.5,434.5C 653.423,431.553 654.089,428.553 654.5,425.5 Z" /></g><g><path style="opacity:0.797" fill="#d8d8d8" d="M 138.5,435.5 C 140.185,436.184 141.185,437.517 141.5,439.5C 138.956,440.426 136.456,441.426 134,442.5C 132.368,440.973 132.201,439.307 133.5,437.5C 135.336,436.972 137.003,436.306 138.5,435.5 Z" /></g><g><path style="opacity:0.774" fill="#d8d8d8" d="M 609.5,435.5 C 611.865,436.008 614.199,436.675 616.5,437.5C 617.948,439.808 617.282,441.141 614.5,441.5C 612.392,441.14 610.392,440.473 608.5,439.5C 609.246,438.264 609.579,436.93 609.5,435.5 Z" /></g><g><path class="is-animate" style="opacity:0.465" fill="#d9d9d9" d="M 100.5,452.5 C 102.573,455.043 103.906,458.043 104.5,461.5C 76.312,471.229 47.9786,480.563 19.5,489.5C 17.7925,486.193 16.4592,482.693 15.5,479C 15.6448,478.228 15.9781,477.561 16.5,477C 44.7083,469.119 72.7083,460.953 100.5,452.5 Z" /></g><g><path style="opacity:0.461" fill="#d9d9d9" d="M 647.5,453.5 C 674.944,460.48 702.277,467.98 729.5,476C 731.651,476.265 733.318,477.265 734.5,479C 733.458,482.627 732.125,486.127 730.5,489.5C 702.215,480.294 673.882,471.294 645.5,462.5C 646.167,459.5 646.833,456.5 647.5,453.5 Z" /></g><g><path style="opacity:0.742" fill="#d7d7d7" d="M 145.5,455.5 C 146.267,456.172 146.934,457.005 147.5,458C 144.626,459.919 141.626,460.419 138.5,459.5C 140.643,457.79 142.977,456.457 145.5,455.5 Z" /></g><g><path style="opacity:0.63" fill="#d8d8d8" d="M 603.5,456.5 C 606.425,456.46 609.091,457.293 611.5,459C 608.488,460.477 605.488,460.144 602.5,458C 603.056,457.617 603.389,457.117 603.5,456.5 Z" /></g></svg>