	<svg xmlns="http://www.w3.org/2000/svg" width="147" height="146" viewBox="0 0 147 146" fill="none">
											<defs>
												<pattern id="img1" patternUnits="userSpaceOnUse" width="30" height="30">
													<image href="./images/neutral-emoji.svg" x="2" y="1" width="24" height="24" />
												</pattern>
												<pattern id="img2" patternUnits="userSpaceOnUse" width="30" height="29">
													<image href="./images/happy-emoji.svg" x="2" y="-1" width="24" height="22" />
												</pattern>
												<pattern id="img3" patternUnits="userSpaceOnUse" width="30" height="29">
													<image href="./images/angry-emoji.svg" x="2" y="-1" width="24" height="22" />
												</pattern>
											</defs>
											<mask id="path-1-inside-1_22_456" fill="white">
												<path
													d="M133.919 92.6891C137.626 93.6826 141.474 91.4842 142.092 87.696C143.429 79.5038 143.291 71.119 141.665 62.9412C139.585 52.4856 135.128 42.6486 128.638 34.1911C122.148 25.7336 113.8 18.8823 104.239 14.1673C94.678 9.45235 84.1604 7 73.5 7C62.8396 7 52.322 9.45235 42.7609 14.1673C33.1999 18.8823 24.8516 25.7336 18.3619 34.1911C11.8723 42.6486 7.41517 52.4856 5.33542 62.9412C3.70875 71.119 3.57055 79.5038 4.90772 87.696C5.52605 91.4842 9.37375 93.6826 13.0813 92.6891C16.7889 91.6957 18.9429 87.8848 18.4194 84.0823C17.5777 77.9674 17.7578 71.7386 18.9683 65.653C20.6321 57.2885 24.1978 49.4189 29.3896 42.6529C34.5813 35.8869 41.2599 30.4059 48.9087 26.6339C56.5576 22.8619 64.9716 20.9 73.5 20.9C82.0284 20.9 90.4424 22.8619 98.0913 26.6339C105.74 30.4059 112.419 35.8869 117.61 42.6529C122.802 49.4189 126.368 57.2885 128.032 65.653C129.242 71.7386 129.422 77.9674 128.581 84.0823C128.057 87.8848 130.211 91.6957 133.919 92.6891Z"
												/>
											</mask>
											<path
												class="line"
												xmlns="http://www.w3.org/2000/svg"
												d="M129.919 85.6891C133.626 86.6826 137.474 84.4842 138.092 80.696C139.429 72.5038 139.291 64.119 137.665 55.9412C135.585 45.4856 131.128 35.6486 124.638 27.1911C118.148 18.7336 109.8 11.8823 100.239 7.16734C90.678 2.45235 80.1604 -1.48277e-07 69.5 0C58.8396 1.48277e-07 48.322 2.45235 38.7609 7.16735C29.1999 11.8823 20.8516 18.7336 14.3619 27.1911C7.87228 35.6486 3.41517 45.4856 1.33542 55.9412C-0.291246 64.119 -0.429454 72.5038 0.907718 80.696C1.52605 84.4842 5.37375 86.6826 9.08134 85.6891C12.7889 84.6957 14.9429 80.8848 14.4194 77.0823C13.5777 70.9674 13.7578 64.7386 14.9683 58.653C16.6321 50.2885 20.1978 42.4189 25.3896 35.6529C30.5813 28.8869 37.2599 23.4059 44.9087 19.6339C52.5576 15.8619 60.9716 13.9 69.5 13.9C78.0284 13.9 86.4424 15.8619 94.0913 19.6339C101.74 23.4059 108.419 28.8869 113.61 35.6529C118.802 42.4189 122.368 50.2885 124.032 58.653C125.242 64.7386 125.422 70.9674 124.581 77.0823C124.057 80.8848 126.211 84.6957 129.919 85.6891Z"
												stroke="#EFF2F5"
												stroke-width="24"
												stroke-linecap="round"
												mask="url(#path-1-inside-1_22_456)"
											/>
											<path
												d="M133.919 92.6891C137.626 93.6826 141.474 91.4842 142.092 87.696C143.429 79.5038 143.291 71.119 141.665 62.9412C139.585 52.4856 135.128 42.6486 128.638 34.1911C122.148 25.7336 113.8 18.8823 104.239 14.1673C94.678 9.45235 84.1604 7 73.5 7C62.8396 7 52.322 9.45235 42.7609 14.1673C33.1999 18.8823 24.8516 25.7336 18.3619 34.1911C11.8723 42.6486 7.41517 52.4856 5.33542 62.9412C3.70875 71.119 3.57055 79.5038 4.90772 87.696C5.52605 91.4842 9.37375 93.6826 13.0813 92.6891C16.7889 91.6957 18.9429 87.8848 18.4194 84.0823C17.5777 77.9674 17.7578 71.7386 18.9683 65.653C20.6321 57.2885 24.1978 49.4189 29.3896 42.6529C34.5813 35.8869 41.2599 30.4059 48.9087 26.6339C56.5576 22.8619 64.9716 20.9 73.5 20.9C82.0284 20.9 90.4424 22.8619 98.0913 26.6339C105.74 30.4059 112.419 35.8869 117.61 42.6529C122.802 49.4189 126.368 57.2885 128.032 65.653C129.242 71.7386 129.422 77.9674 128.581 84.0823C128.057 87.8848 130.211 91.6957 133.919 92.6891Z"
												stroke="#EFF2F5"
												stroke-width="24"
												mask="url(#path-1-inside-1_22_456)"
											/>
											<rect y="84" width="28" height="28" rx="14" fill="white" />
											<path opacity="0.32" d="M2 109.68H26V85.68H2V109.68Z" fill="url(#img3)" />
											<rect x="119" y="84" width="28" height="28" rx="14" fill="white" />
											<path opacity="0.32" d="M121 109.68H145V85.68H121V109.68Z" fill="url(#img2)" />
											<rect x="60" width="28" height="28" rx="14" fill="white" />
											<path class="neutral" opacity="0.32" d="M62 25.68H86V1.68H62V25.68Z" fill="url(#img1)" />
										</svg>