<!DOCTYPE svg PUBLIC "-//W3C//DTD SVG 1.1//EN" "http://www.w3.org/Graphics/SVG/1.1/DTD/svg11.dtd"[]><svg xmlns="http://www.w3.org/2000/svg" version="1.1" width="115" height="115" style="shape-rendering:geometricPrecision; text-rendering:geometricPrecision; image-rendering:optimizeQuality; fill-rule:evenodd; clip-rule:evenodd" xmlns:xlink="http://www.w3.org/1999/xlink" viewBox="0 0 588 584">      <defs>
        <linearGradient id="MyGradient">
          <stop offset="5%" stop-color="#F60" />
          <stop offset="55%" stop-color="transparent" />
        </linearGradient>
      </defs><g><path style="opacity:0.973" fill="#fefefd" d="M 284.5,-0.5 C 291.5,-0.5 298.5,-0.5 305.5,-0.5C 324.793,3.45507 338.46,14.4551 346.5,32.5C 354.208,52.007 352.541,70.6737 341.5,88.5C 323.718,110.257 301.384,116.757 274.5,108C 264.262,103.927 255.929,97.4274 249.5,88.5C 238.416,70.3173 236.749,51.3173 244.5,31.5C 252.83,14.496 266.163,3.82929 284.5,-0.5 Z" /></g><g><path style="opacity:0.008" fill="#fe0000" d="M 342.5,5.5 C 343.525,5.89657 343.692,6.56323 343,7.5C 342.536,6.90558 342.369,6.23891 342.5,5.5 Z" /></g><g><path  class="is-animate" style="opacity:0.989" fill="#eff1f5" d="M 244.5,31.5 C 236.749,51.3173 238.416,70.3173 249.5,88.5C 175.252,104.877 122.086,147.543 90,216.5C 73.521,255.664 68.021,296.331 73.5,338.5C 53.4751,332.892 35.1417,336.225 18.5,348.5C 5.75702,248.545 36.0904,164.379 109.5,96C 148.413,62.2138 193.413,40.7138 244.5,31.5 Z" /></g><g><path style="opacity:0.991" fill="#eff1f4" d="M 346.5,32.5 C 428.233,49.4322 490.733,93.4322 534,164.5C 566.506,221.863 578.006,283.197 568.5,348.5C 551.853,336.225 533.52,332.891 513.5,338.5C 522.507,259.001 497.84,192.168 439.5,138C 410.852,113.842 378.185,97.342 341.5,88.5C 352.541,70.6737 354.208,52.007 346.5,32.5 Z" /></g><g><path style="opacity:1" fill="#f9deb2" d="M 301.5,11.5 C 315.727,13.738 326.394,21.0713 333.5,33.5C 340.221,55.4973 334.554,73.3306 316.5,87C 295.899,97.2607 278.065,93.7607 263,76.5C 255.551,64.478 253.051,51.478 255.5,37.5C 264.782,17.8648 280.115,9.19812 301.5,11.5 Z" /></g><g><path style="opacity:1" fill="#fde3b3" d="M 268.5,22.5 C 267.167,24.8333 265.833,27.1667 264.5,29.5C 264.443,30.609 264.11,31.609 263.5,32.5C 262.11,33.8993 261.11,35.5659 260.5,37.5C 256.544,51.8114 260.211,63.9781 271.5,74C 276.147,75.9635 280.814,77.9635 285.5,80C 292.167,80.6667 298.833,80.6667 305.5,80C 309.777,78.022 314.11,76.3553 318.5,75C 330.782,64.9823 334.782,52.4823 330.5,37.5C 329.692,34.5498 328.358,31.8831 326.5,29.5C 325.5,27.5 324.5,25.5 323.5,23.5C 328.166,27.4867 331.333,32.4867 333,38.5C 337.657,60.1556 330.157,75.9889 310.5,86C 286.319,92.9915 268.819,85.1581 258,62.5C 255.132,50.9624 256.466,39.9624 262,29.5C 263.666,26.6688 265.832,24.3355 268.5,22.5 Z" /></g><g><path style="opacity:1" fill="#fef9c5" d="M 283.5,36.5 C 291.443,37.053 299.443,37.053 307.5,36.5C 307.5,36.8333 307.5,37.1667 307.5,37.5C 305.975,39.2163 304.975,41.2163 304.5,43.5C 302.97,44.0668 301.47,44.7334 300,45.5C 296.377,44.4995 292.543,44.1661 288.5,44.5C 287.818,45.2427 287.151,45.9094 286.5,46.5C 286.871,42.9966 285.871,39.9966 283.5,37.5C 283.5,37.1667 283.5,36.8333 283.5,36.5 Z" /></g><g><path style="opacity:1" fill="#fef4c9" d="M 325.5,29.5 C 325.833,29.5 326.167,29.5 326.5,29.5C 328.358,31.8831 329.692,34.5498 330.5,37.5C 330.167,38.8333 329.833,40.1667 329.5,41.5C 326.859,42.2631 324.192,42.4298 321.5,42C 322.5,41 323.5,40 324.5,39C 320.583,38.4334 316.917,38.9334 313.5,40.5C 311.947,38.615 309.947,37.615 307.5,37.5C 307.5,37.1667 307.5,36.8333 307.5,36.5C 309.467,36.2606 311.301,36.5939 313,37.5C 315.007,36.3313 317.173,35.6646 319.5,35.5C 319.433,34.0413 319.766,32.7079 320.5,31.5C 322.306,30.9759 323.972,30.3092 325.5,29.5 Z" /></g><g><path style="opacity:1" fill="#fef4c8" d="M 263.5,32.5 C 265.961,33.531 268.627,34.1977 271.5,34.5C 275.336,35.3777 279.336,36.0443 283.5,36.5C 283.5,36.8333 283.5,37.1667 283.5,37.5C 281.053,37.615 279.053,38.615 277.5,40.5C 274.083,38.9334 270.417,38.4334 266.5,39C 267.71,40.0391 268.71,41.2058 269.5,42.5C 266.794,42.4249 264.127,42.0916 261.5,41.5C 260.766,40.2921 260.433,38.9587 260.5,37.5C 261.11,35.5659 262.11,33.8993 263.5,32.5 Z" /></g><g><path style="opacity:1" fill="#fefbd1" d="M 320.5,31.5 C 319.766,32.7079 319.433,34.0413 319.5,35.5C 317.173,35.6646 315.007,36.3313 313,37.5C 311.301,36.5939 309.467,36.2606 307.5,36.5C 299.443,37.053 291.443,37.053 283.5,36.5C 279.336,36.0443 275.336,35.3777 271.5,34.5C 270.913,33.2334 270.913,32.2334 271.5,31.5C 287.823,35.4462 304.156,35.4462 320.5,31.5 Z" /></g><g><path style="opacity:1" fill="#fffbd6" d="M 320.5,31.5 C 304.156,35.4462 287.823,35.4462 271.5,31.5C 270.913,32.2334 270.913,33.2334 271.5,34.5C 268.627,34.1977 265.961,33.531 263.5,32.5C 264.11,31.609 264.443,30.609 264.5,29.5C 264.833,29.5 265.167,29.5 265.5,29.5C 266.568,30.4345 267.901,30.7678 269.5,30.5C 269.351,29.448 269.517,28.448 270,27.5C 286.995,32.7946 303.995,32.7946 321,27.5C 321.195,28.8193 321.028,30.1526 320.5,31.5 Z" /></g><g><path style="opacity:1" fill="#fffbdc" d="M 271.5,23.5 C 272.347,24.9663 273.68,25.7996 275.5,26C 281.963,27.4261 288.463,28.5928 295,29.5C 303.189,28.5809 311.189,26.9142 319,24.5C 319.671,25.2524 320.504,25.5858 321.5,25.5C 323.167,26.5 324.5,27.8333 325.5,29.5C 323.972,30.3092 322.306,30.9759 320.5,31.5C 321.028,30.1526 321.195,28.8193 321,27.5C 303.995,32.7946 286.995,32.7946 270,27.5C 269.517,28.448 269.351,29.448 269.5,30.5C 267.901,30.7678 266.568,30.4345 265.5,29.5C 267.167,27.1667 269.167,25.1667 271.5,23.5 Z" /></g><g><path style="opacity:1" fill="#ffefb5" d="M 301.5,11.5 C 309.708,13.9365 317.041,17.9365 323.5,23.5C 324.5,25.5 325.5,27.5 326.5,29.5C 326.167,29.5 325.833,29.5 325.5,29.5C 324.5,27.8333 323.167,26.5 321.5,25.5C 320.109,23.1097 318.109,21.4431 315.5,20.5C 314.329,19.6554 312.995,18.9887 311.5,18.5C 300.806,13.2226 290.139,13.2226 279.5,18.5C 277.632,19.2632 275.965,20.2632 274.5,21.5C 273.29,21.9321 272.29,22.5987 271.5,23.5C 269.167,25.1667 267.167,27.1667 265.5,29.5C 265.167,29.5 264.833,29.5 264.5,29.5C 265.833,27.1667 267.167,24.8333 268.5,22.5C 278.019,14.6604 289.019,10.9938 301.5,11.5 Z" /></g><g><path style="opacity:1" fill="#fffce3" d="M 315.5,20.5 C 318.109,21.4431 320.109,23.1097 321.5,25.5C 320.504,25.5858 319.671,25.2524 319,24.5C 311.189,26.9142 303.189,28.5809 295,29.5C 288.463,28.5928 281.963,27.4261 275.5,26C 273.68,25.7996 272.347,24.9663 271.5,23.5C 272.29,22.5987 273.29,21.9321 274.5,21.5C 281.084,23.7215 287.917,25.3882 295,26.5C 300.875,25.5731 306.709,24.4065 312.5,23C 313.942,22.6232 314.942,21.7899 315.5,20.5 Z" /></g><g><path style="opacity:1" fill="#fffde9" d="M 279.5,18.5 C 290.149,25.0761 300.816,25.0761 311.5,18.5C 312.995,18.9887 314.329,19.6554 315.5,20.5C 314.942,21.7899 313.942,22.6232 312.5,23C 306.709,24.4065 300.875,25.5731 295,26.5C 287.917,25.3882 281.084,23.7215 274.5,21.5C 275.965,20.2632 277.632,19.2632 279.5,18.5 Z" /></g><g><path style="opacity:1" fill="#fffdef" d="M 311.5,18.5 C 300.816,25.0761 290.149,25.0761 279.5,18.5C 290.139,13.2226 300.806,13.2226 311.5,18.5 Z" /></g><g><path style="opacity:1" fill="#f0d2b1" d="M 252.5,47.5 C 252.697,61.8967 257.864,74.23 268,84.5C 268.41,85.9007 268.91,87.234 269.5,88.5C 266.944,87.4566 264.777,85.7899 263,83.5C 254.557,72.9973 251.057,60.9973 252.5,47.5 Z" /></g><g><path style="opacity:1" fill="#f3d7af" d="M 333.5,33.5 C 335.733,36.39 337.066,39.7233 337.5,43.5C 339.391,61.6871 333.391,76.5205 319.5,88C 308.932,94.5388 297.598,96.5388 285.5,94C 280.251,91.8735 274.918,90.0401 269.5,88.5C 268.91,87.234 268.41,85.9007 268,84.5C 257.864,74.23 252.697,61.8967 252.5,47.5C 252.723,43.8379 253.723,40.5046 255.5,37.5C 253.051,51.478 255.551,64.478 263,76.5C 278.065,93.7607 295.899,97.2607 316.5,87C 334.554,73.3306 340.221,55.4973 333.5,33.5 Z" /></g><g><path style="opacity:1" fill="#fee9ba" d="M 260.5,37.5 C 260.433,38.9587 260.766,40.2921 261.5,41.5C 265.266,47.1221 268.433,53.1221 271,59.5C 272.167,60.6667 273.333,61.8333 274.5,63C 288.5,65 302.5,65 316.5,63C 320.965,55.9026 325.298,48.7359 329.5,41.5C 329.833,40.1667 330.167,38.8333 330.5,37.5C 334.782,52.4823 330.782,64.9823 318.5,75C 314.11,76.3553 309.777,78.022 305.5,80C 298.833,80.6667 292.167,80.6667 285.5,80C 280.814,77.9635 276.147,75.9635 271.5,74C 260.211,63.9781 256.544,51.8114 260.5,37.5 Z" /></g><g><path style="opacity:1" fill="#feecbf" d="M 317.5,69.5 C 315.86,73.3604 312.86,75.8604 308.5,77C 297.441,80.4211 286.774,79.4211 276.5,74C 275.177,73.1841 274.511,72.0174 274.5,70.5C 288.912,70.8156 303.245,70.4822 317.5,69.5 Z" /></g><g><path style="opacity:1" fill="#dac8b0" d="M 317.5,68.5 C 317.5,68.8333 317.5,69.1667 317.5,69.5C 303.245,70.4822 288.912,70.8156 274.5,70.5C 274.167,69.8333 273.833,69.1667 273.5,68.5C 288.167,67.1667 302.833,67.1667 317.5,68.5 Z" /></g><g><path style="opacity:1" fill="#d0bfae" d="M 317.5,68.5 C 302.833,67.1667 288.167,67.1667 273.5,68.5C 273.5,67.5 273.5,66.5 273.5,65.5C 288.167,65.5 302.833,65.5 317.5,65.5C 317.5,66.5 317.5,67.5 317.5,68.5 Z" /></g><g><path style="opacity:1" fill="#fef0bd" d="M 329.5,41.5 C 325.298,48.7359 320.965,55.9026 316.5,63C 302.5,65 288.5,65 274.5,63C 273.333,61.8333 272.167,60.6667 271,59.5C 268.433,53.1221 265.266,47.1221 261.5,41.5C 264.127,42.0916 266.794,42.4249 269.5,42.5C 272.189,44.6942 274.356,47.3609 276,50.5C 278.285,54.3619 281.451,55.3619 285.5,53.5C 289.186,54.0657 292.686,55.0657 296,56.5C 300.242,53.8164 304.742,53.1497 309.5,54.5C 312.644,53.7472 313.978,52.0805 313.5,49.5C 314.734,46.4648 314.734,43.4648 313.5,40.5C 316.917,38.9334 320.583,38.4334 324.5,39C 323.5,40 322.5,41 321.5,42C 324.192,42.4298 326.859,42.2631 329.5,41.5 Z" /></g><g><path style="opacity:1" fill="#fef5be" d="M 277.5,40.5 C 276.167,43.5 276.167,46.5 277.5,49.5C 278.92,52.3489 280.92,53.0156 283.5,51.5C 285.25,50.3406 286.25,48.674 286.5,46.5C 287.151,45.9094 287.818,45.2427 288.5,44.5C 292.543,44.1661 296.377,44.4995 300,45.5C 301.47,44.7334 302.97,44.0668 304.5,43.5C 304.325,45.6208 304.659,47.6208 305.5,49.5C 308.167,53.5 310.833,53.5 313.5,49.5C 313.978,52.0805 312.644,53.7472 309.5,54.5C 304.742,53.1497 300.242,53.8164 296,56.5C 292.686,55.0657 289.186,54.0657 285.5,53.5C 281.451,55.3619 278.285,54.3619 276,50.5C 274.356,47.3609 272.189,44.6942 269.5,42.5C 268.71,41.2058 267.71,40.0391 266.5,39C 270.417,38.4334 274.083,38.9334 277.5,40.5 Z" /></g><g><path style="opacity:1" fill="#d7c5af" d="M 283.5,37.5 C 285.871,39.9966 286.871,42.9966 286.5,46.5C 286.25,48.674 285.25,50.3406 283.5,51.5C 284.7,48.2977 284.7,45.1311 283.5,42C 281.633,41.2888 280.133,41.7888 279,43.5C 278.809,45.7078 278.309,47.7078 277.5,49.5C 276.167,46.5 276.167,43.5 277.5,40.5C 279.053,38.615 281.053,37.615 283.5,37.5 Z" /></g><g><path style="opacity:1" fill="#d6c5af" d="M 307.5,37.5 C 309.947,37.615 311.947,38.615 313.5,40.5C 314.734,43.4648 314.734,46.4648 313.5,49.5C 312.691,47.7078 312.191,45.7078 312,43.5C 310.688,41.3424 309.022,41.0091 307,42.5C 306.814,45.0356 306.314,47.369 305.5,49.5C 304.659,47.6208 304.325,45.6208 304.5,43.5C 304.975,41.2163 305.975,39.2163 307.5,37.5 Z" /></g><g><path style="opacity:1" fill="#decbaf" d="M 313.5,49.5 C 310.833,53.5 308.167,53.5 305.5,49.5C 306.314,47.369 306.814,45.0356 307,42.5C 309.022,41.0091 310.688,41.3424 312,43.5C 312.191,45.7078 312.691,47.7078 313.5,49.5 Z" /></g><g><path style="opacity:1" fill="#decbaf" d="M 283.5,51.5 C 280.92,53.0156 278.92,52.3489 277.5,49.5C 278.309,47.7078 278.809,45.7078 279,43.5C 280.133,41.7888 281.633,41.2888 283.5,42C 284.7,45.1311 284.7,48.2977 283.5,51.5 Z" /></g><g><path style="opacity:1" fill="#efd2b3" d="M 337.5,43.5 C 340.89,57.7048 338.057,70.7048 329,82.5C 311.927,99.0609 292.76,101.894 271.5,91C 270.619,90.2917 269.953,89.4584 269.5,88.5C 274.918,90.0401 280.251,91.8735 285.5,94C 297.598,96.5388 308.932,94.5388 319.5,88C 333.391,76.5205 339.391,61.6871 337.5,43.5 Z" /></g><g><path style="opacity:0.02" fill="#fe0000" d="M 247.5,101.5 C 248.833,102.167 248.833,102.167 247.5,101.5 Z" /></g><g><path style="opacity:0.967" fill="#fefefe" d="M 73.5,338.5 C 93.5163,345.688 106.016,359.688 111,380.5C 114.465,415.017 99.6321,437.183 66.5,447C 31.9594,450.26 9.62604,435.426 -0.5,402.5C -0.5,395.5 -0.5,388.5 -0.5,381.5C 2.4524,368.6 8.78573,357.6 18.5,348.5C 35.1417,336.225 53.4751,332.892 73.5,338.5 Z" /></g><g><path style="opacity:0.967" fill="#fefefd" d="M 568.5,348.5 C 577.929,357.362 584.262,368.029 587.5,380.5C 587.5,387.5 587.5,394.5 587.5,401.5C 578.117,434.709 556.117,449.875 521.5,447C 488.175,437.867 473.008,416.034 476,381.5C 480.533,360.139 493.033,345.805 513.5,338.5C 533.52,332.891 551.853,336.225 568.5,348.5 Z" /></g><g><path style="opacity:0.008" fill="#fe0000" d="M 102.5,341.5 C 103.525,341.897 103.692,342.563 103,343.5C 102.536,342.906 102.369,342.239 102.5,341.5 Z" /></g><g><path style="opacity:0.008" fill="#fe0000" d="M 578.5,341.5 C 579.525,341.897 579.692,342.563 579,343.5C 578.536,342.906 578.369,342.239 578.5,341.5 Z" /></g><g><path style="opacity:1" fill="#fbd1b4" d="M 85.5,358.5 C 87.8108,362.34 89.9774,366.34 92,370.5C 92.7713,373.859 93.6047,377.192 94.5,380.5C 91.3507,394.522 83.0173,404.688 69.5,411C 66.4686,411.495 63.4686,411.329 60.5,410.5C 56.3164,408.956 52.3164,409.29 48.5,411.5C 33.4354,409.279 23.2688,400.946 18,386.5C 17.3333,382.167 17.3333,377.833 18,373.5C 19.9885,368.7 22.1552,364.034 24.5,359.5C 44.5529,342.522 64.8862,342.189 85.5,358.5 Z" /></g><g><path style="opacity:1" fill="#feefd0" d="M 78.5,358.5 C 78.683,360.936 78.0163,363.103 76.5,365C 70.9508,365.555 65.4508,366.388 60,367.5C 51.5778,367.188 43.0778,366.355 34.5,365C 33.0289,363.417 32.0289,361.583 31.5,359.5C 41.6485,350.614 53.3151,348.114 66.5,352C 71.0099,353.418 75.0099,355.585 78.5,358.5 Z" /></g><g><path style="opacity:1" fill="#feeacb" d="M 78.5,358.5 C 79.5,359.167 80.5,359.833 81.5,360.5C 81.8333,361.167 82.1667,361.833 82.5,362.5C 81.6501,366.361 79.6501,369.528 76.5,372C 59.7773,383.785 44.2773,382.285 30,367.5C 28.9914,365.975 28.4914,364.308 28.5,362.5C 29.1667,361.167 30.1667,360.167 31.5,359.5C 32.0289,361.583 33.0289,363.417 34.5,365C 43.0778,366.355 51.5778,367.188 60,367.5C 65.4508,366.388 70.9508,365.555 76.5,365C 78.0163,363.103 78.683,360.936 78.5,358.5 Z" /></g><g><path style="opacity:1" fill="#fddcbc" d="M 81.5,360.5 C 80.5,359.833 79.5,359.167 78.5,358.5C 75.0099,355.585 71.0099,353.418 66.5,352C 53.3151,348.114 41.6485,350.614 31.5,359.5C 30.1667,360.167 29.1667,361.167 28.5,362.5C 25.0395,364.113 24.5395,366.446 27,369.5C 37.1828,383.272 50.6828,387.772 67.5,383C 74.1919,379.743 80.0252,375.243 85,369.5C 85.4935,367.866 85.6602,366.199 85.5,364.5C 86.8897,365.899 87.8897,367.566 88.5,369.5C 85.338,376.335 80.338,381.002 73.5,383.5C 69.0236,384.571 65.3569,386.904 62.5,390.5C 60.2574,391.312 57.9241,391.979 55.5,392.5C 54.1667,392.333 52.8333,392.167 51.5,392C 50.8971,389.929 49.5638,388.762 47.5,388.5C 44.6339,386.568 41.6339,384.901 38.5,383.5C 35.6377,382.868 32.8044,381.868 30,380.5C 28.3793,378.507 26.7127,376.507 25,374.5C 23.7978,372.323 23.2978,369.989 23.5,367.5C 28.0438,358.803 35.0438,352.637 44.5,349C 56.343,346.858 67.343,348.858 77.5,355C 79.4641,356.451 80.7974,358.284 81.5,360.5 Z" /></g><g><path style="opacity:1" fill="#f9cab1" d="M 85.5,358.5 C 92.7081,365.247 97.0414,373.58 98.5,383.5C 97.8826,383.611 97.3826,383.944 97,384.5C 96.5916,395.047 92.4249,403.714 84.5,410.5C 63.2688,425.661 42.7688,424.661 23,407.5C 16.3502,398.891 13.1835,389.225 13.5,378.5C 15.3891,371.044 19.0558,364.711 24.5,359.5C 22.1552,364.034 19.9885,368.7 18,373.5C 17.3333,377.833 17.3333,382.167 18,386.5C 23.2688,400.946 33.4354,409.279 48.5,411.5C 47.2073,413.296 45.7073,414.963 44,416.5C 43.3123,417.332 43.479,417.998 44.5,418.5C 51.472,414.561 58.472,414.561 65.5,418.5C 66.5827,417.635 66.7494,416.635 66,415.5C 64.2703,413.598 62.437,411.931 60.5,410.5C 63.4686,411.329 66.4686,411.495 69.5,411C 83.0173,404.688 91.3507,394.522 94.5,380.5C 93.6047,377.192 92.7713,373.859 92,370.5C 89.9774,366.34 87.8108,362.34 85.5,358.5 Z" /></g><g><path style="opacity:1" fill="#fcd6b7" d="M 23.5,367.5 C 23.2978,369.989 23.7978,372.323 25,374.5C 26.7127,376.507 28.3793,378.507 30,380.5C 32.8044,381.868 35.6377,382.868 38.5,383.5C 36.5,383.5 34.5,383.5 32.5,383.5C 32.5,384.5 32.5,385.5 32.5,386.5C 36.5991,386.367 40.2657,387.533 43.5,390C 41.6763,390.66 40.343,391.827 39.5,393.5C 38.6909,395.292 38.1909,397.292 38,399.5C 30.6758,392.517 24.5091,384.684 19.5,376C 20.199,372.773 21.5323,369.939 23.5,367.5 Z" /></g><g><path style="opacity:1" fill="#fee4c4" d="M 28.5,362.5 C 28.4914,364.308 28.9914,365.975 30,367.5C 44.2773,382.285 59.7773,383.785 76.5,372C 79.6501,369.528 81.6501,366.361 82.5,362.5C 83.5,363.167 84.5,363.833 85.5,364.5C 85.6602,366.199 85.4935,367.866 85,369.5C 80.0252,375.243 74.1919,379.743 67.5,383C 50.6828,387.772 37.1828,383.272 27,369.5C 24.5395,366.446 25.0395,364.113 28.5,362.5 Z" /></g><g><path style="opacity:1" fill="#f7c5af" d="M 13.5,378.5 C 13.1835,389.225 16.3502,398.891 23,407.5C 42.7688,424.661 63.2688,425.661 84.5,410.5C 92.4249,403.714 96.5916,395.047 97,384.5C 97.3826,383.944 97.8826,383.611 98.5,383.5C 99.6778,388.021 99.6778,392.688 98.5,397.5C 94.6157,403.916 90.4491,410.25 86,416.5C 80.6859,421.233 74.8526,425.066 68.5,428C 55.6775,431.261 43.6775,429.594 32.5,423C 28.6495,420.146 25.1495,416.979 22,413.5C 18.5429,408.236 15.3762,402.902 12.5,397.5C 12.2088,391.077 12.5422,384.744 13.5,378.5 Z" /></g><g><path style="opacity:1" fill="#f9deb2" d="M 537.5,347.5 C 551.727,349.738 562.394,357.071 569.5,369.5C 576.221,391.497 570.554,409.331 552.5,423C 531.899,433.261 514.065,429.761 499,412.5C 491.551,400.478 489.051,387.478 491.5,373.5C 500.782,353.865 516.115,345.198 537.5,347.5 Z" /></g><g><path style="opacity:1" fill="#fde9bb" d="M 565.5,371.5 C 567.579,373.675 568.579,376.342 568.5,379.5C 566.92,391.318 563.087,402.318 557,412.5C 554.894,415.118 552.394,417.118 549.5,418.5C 551.833,415.833 554.167,413.167 556.5,410.5C 559.575,406.345 560.908,401.679 560.5,396.5C 558.784,396.629 557.117,396.962 555.5,397.5C 557.622,390.424 560.955,383.924 565.5,378C 562.881,378.083 560.214,378.25 557.5,378.5C 558.5,377.167 559.5,375.833 560.5,374.5C 562.674,374.25 564.341,373.25 565.5,371.5 Z" /></g><g><path style="opacity:1" fill="#fce3b3" d="M 504.5,358.5 C 503.167,360.833 501.833,363.167 500.5,365.5C 500.443,366.609 500.11,367.609 499.5,368.5C 498.11,369.899 497.11,371.566 496.5,373.5C 494.663,376.519 494.163,379.852 495,383.5C 496.27,389.64 497.937,395.64 500,401.5C 500.608,403.066 501.442,404.4 502.5,405.5C 503.401,406.29 504.068,407.29 504.5,408.5C 508.303,414.972 513.636,419.639 520.5,422.5C 507.799,418.974 498.965,410.974 494,398.5C 491.132,386.962 492.466,375.962 498,365.5C 499.666,362.669 501.832,360.336 504.5,358.5 Z" /></g><g><path style="opacity:1" fill="#fce3b4" d="M 559.5,359.5 C 565.284,364.48 568.784,370.813 570,378.5C 571.357,407.149 557.691,422.816 529,425.5C 526.625,425.406 524.291,425.072 522,424.5C 520.97,424.164 520.47,423.497 520.5,422.5C 530.7,424.761 540.367,423.428 549.5,418.5C 552.394,417.118 554.894,415.118 557,412.5C 563.087,402.318 566.92,391.318 568.5,379.5C 568.579,376.342 567.579,373.675 565.5,371.5C 565.025,369.216 564.025,367.216 562.5,365.5C 561.5,363.5 560.5,361.5 559.5,359.5 Z" /></g><g><path style="opacity:1" fill="#fdf3c5" d="M 499.5,368.5 C 501.961,369.531 504.627,370.198 507.5,370.5C 508.209,371.404 509.209,371.737 510.5,371.5C 512.144,372.316 513.31,373.65 514,375.5C 515.009,374.342 516.342,373.675 518,373.5C 519.681,373.608 520.848,374.275 521.5,375.5C 515.876,374.111 513.209,376.445 513.5,382.5C 512.596,381.791 512.263,380.791 512.5,379.5C 510.435,379.483 508.435,379.15 506.5,378.5C 503.455,378.492 500.455,378.159 497.5,377.5C 496.766,376.292 496.433,374.959 496.5,373.5C 497.11,371.566 498.11,369.899 499.5,368.5 Z" /></g><g><path style="opacity:1" fill="#fefaca" d="M 510.5,371.5 C 523.711,373.623 536.711,373.623 549.5,371.5C 550.5,371.667 551.5,371.833 552.5,372C 550.867,372.48 549.534,373.313 548.5,374.5C 546.389,373.258 544.389,373.258 542.5,374.5C 541.272,375.306 540.272,376.306 539.5,377.5C 534.769,377.511 529.603,377.178 524,376.5C 523.536,377.094 523.369,377.761 523.5,378.5C 523.167,378.5 522.833,378.5 522.5,378.5C 522.443,377.391 522.11,376.391 521.5,375.5C 520.848,374.275 519.681,373.608 518,373.5C 516.342,373.675 515.009,374.342 514,375.5C 513.31,373.65 512.144,372.316 510.5,371.5 Z" /></g><g><path style="opacity:1" fill="#fff9cf" d="M 561.5,365.5 C 561.833,365.5 562.167,365.5 562.5,365.5C 564.025,367.216 565.025,369.216 565.5,371.5C 564.341,373.25 562.674,374.25 560.5,374.5C 556.321,375.226 552.321,375.226 548.5,374.5C 549.534,373.313 550.867,372.48 552.5,372C 551.5,371.833 550.5,371.667 549.5,371.5C 536.711,373.623 523.711,373.623 510.5,371.5C 509.209,371.737 508.209,371.404 507.5,370.5C 506.913,369.233 506.913,368.233 507.5,367.5C 523.823,371.446 540.156,371.446 556.5,367.5C 558.306,366.976 559.972,366.309 561.5,365.5 Z" /></g><g><path style="opacity:1" fill="#fffbd6" d="M 556.5,367.5 C 540.156,371.446 523.823,371.446 507.5,367.5C 506.913,368.233 506.913,369.233 507.5,370.5C 504.627,370.198 501.961,369.531 499.5,368.5C 500.11,367.609 500.443,366.609 500.5,365.5C 500.833,365.5 501.167,365.5 501.5,365.5C 502.568,366.434 503.901,366.768 505.5,366.5C 505.351,365.448 505.517,364.448 506,363.5C 522.995,368.795 539.995,368.795 557,363.5C 557.195,364.819 557.028,366.153 556.5,367.5 Z" /></g><g><path style="opacity:1" fill="#fffbdc" d="M 507.5,359.5 C 508.347,360.966 509.68,361.8 511.5,362C 517.963,363.426 524.463,364.593 531,365.5C 539.189,364.581 547.189,362.914 555,360.5C 555.671,361.252 556.504,361.586 557.5,361.5C 559.167,362.5 560.5,363.833 561.5,365.5C 559.972,366.309 558.306,366.976 556.5,367.5C 557.028,366.153 557.195,364.819 557,363.5C 539.995,368.795 522.995,368.795 506,363.5C 505.517,364.448 505.351,365.448 505.5,366.5C 503.901,366.768 502.568,366.434 501.5,365.5C 503.167,363.167 505.167,361.167 507.5,359.5 Z" /></g><g><path style="opacity:1" fill="#ffefb5" d="M 537.5,347.5 C 545.708,349.936 553.041,353.936 559.5,359.5C 560.5,361.5 561.5,363.5 562.5,365.5C 562.167,365.5 561.833,365.5 561.5,365.5C 560.5,363.833 559.167,362.5 557.5,361.5C 556.109,359.11 554.109,357.443 551.5,356.5C 550.329,355.655 548.995,354.989 547.5,354.5C 536.806,349.223 526.139,349.223 515.5,354.5C 513.632,355.263 511.965,356.263 510.5,357.5C 509.29,357.932 508.29,358.599 507.5,359.5C 505.167,361.167 503.167,363.167 501.5,365.5C 501.167,365.5 500.833,365.5 500.5,365.5C 501.833,363.167 503.167,360.833 504.5,358.5C 514.019,350.66 525.019,346.994 537.5,347.5 Z" /></g><g><path style="opacity:1" fill="#fffce3" d="M 551.5,356.5 C 554.109,357.443 556.109,359.11 557.5,361.5C 556.504,361.586 555.671,361.252 555,360.5C 547.189,362.914 539.189,364.581 531,365.5C 524.463,364.593 517.963,363.426 511.5,362C 509.68,361.8 508.347,360.966 507.5,359.5C 508.29,358.599 509.29,357.932 510.5,357.5C 517.084,359.721 523.917,361.388 531,362.5C 536.875,361.573 542.709,360.406 548.5,359C 549.942,358.623 550.942,357.79 551.5,356.5 Z" /></g><g><path style="opacity:1" fill="#fffde9" d="M 515.5,354.5 C 526.149,361.076 536.816,361.076 547.5,354.5C 548.995,354.989 550.329,355.655 551.5,356.5C 550.942,357.79 549.942,358.623 548.5,359C 542.709,360.406 536.875,361.573 531,362.5C 523.917,361.388 517.084,359.721 510.5,357.5C 511.965,356.263 513.632,355.263 515.5,354.5 Z" /></g><g><path style="opacity:1" fill="#fffdef" d="M 547.5,354.5 C 536.816,361.076 526.149,361.076 515.5,354.5C 526.139,349.223 536.806,349.223 547.5,354.5 Z" /></g><g><path style="opacity:1" fill="#d1baaf" d="M 73.5,383.5 C 75.6648,383.116 77.3315,383.783 78.5,385.5C 74.5292,386.322 70.8626,387.822 67.5,390C 70.8587,391.135 72.192,393.468 71.5,397C 71.9185,399.981 70.9185,402.314 68.5,404C 65.5724,404.091 63.7391,402.591 63,399.5C 61.9349,396.427 61.7682,393.427 62.5,390.5C 65.3569,386.904 69.0236,384.571 73.5,383.5 Z" /></g><g><path style="opacity:1" fill="#d1baaf" d="M 38.5,383.5 C 41.6339,384.901 44.6339,386.568 47.5,388.5C 49.8973,390.456 49.8973,392.29 47.5,394C 49.0954,397.757 48.4287,401.09 45.5,404C 44.0715,404.579 42.7382,404.412 41.5,403.5C 39.819,400.418 39.1524,397.085 39.5,393.5C 40.343,391.827 41.6763,390.66 43.5,390C 40.2657,387.533 36.5991,386.367 32.5,386.5C 32.5,385.5 32.5,384.5 32.5,383.5C 34.5,383.5 36.5,383.5 38.5,383.5 Z" /></g><g><path style="opacity:1" fill="#fbd6b7" d="M 88.5,369.5 C 90.7555,371.688 91.5888,374.354 91,377.5C 84.1742,387.013 77.0075,396.179 69.5,405C 65.3695,404.441 61.2029,403.607 57,402.5C 55.4192,404.847 54.0859,404.847 53,402.5C 52.2096,404.79 50.8763,405.123 49,403.5C 47.5319,404.628 45.8652,405.294 44,405.5C 42.6244,405.316 41.7911,404.649 41.5,403.5C 42.7382,404.412 44.0715,404.579 45.5,404C 48.4287,401.09 49.0954,397.757 47.5,394C 49.8973,392.29 49.8973,390.456 47.5,388.5C 49.5638,388.762 50.8971,389.929 51.5,392C 52.8333,392.167 54.1667,392.333 55.5,392.5C 57.9241,391.979 60.2574,391.312 62.5,390.5C 61.7682,393.427 61.9349,396.427 63,399.5C 63.7391,402.591 65.5724,404.091 68.5,404C 70.9185,402.314 71.9185,399.981 71.5,397C 72.192,393.468 70.8587,391.135 67.5,390C 70.8626,387.822 74.5292,386.322 78.5,385.5C 77.3315,383.783 75.6648,383.116 73.5,383.5C 80.338,381.002 85.338,376.335 88.5,369.5 Z" /></g><g><path style="opacity:1" fill="#f0d2b1" d="M 488.5,383.5 C 488.697,397.897 493.864,410.23 504,420.5C 504.41,421.901 504.91,423.234 505.5,424.5C 502.944,423.457 500.777,421.79 499,419.5C 490.557,408.997 487.057,396.997 488.5,383.5 Z" /></g><g><path style="opacity:1" fill="#f7c4b1" d="M 12.5,397.5 C 15.3762,402.902 18.5429,408.236 22,413.5C 25.1495,416.979 28.6495,420.146 32.5,423C 43.6775,429.594 55.6775,431.261 68.5,428C 74.8526,425.066 80.6859,421.233 86,416.5C 90.4491,410.25 94.6157,403.916 98.5,397.5C 90.2183,426.32 71.2183,437.82 41.5,432C 25.4715,425.808 15.8048,414.308 12.5,397.5 Z" /></g><g><path style="opacity:1" fill="#ceb8ae" d="M 60.5,410.5 C 62.437,411.931 64.2703,413.598 66,415.5C 66.7494,416.635 66.5827,417.635 65.5,418.5C 58.472,414.561 51.472,414.561 44.5,418.5C 43.479,417.998 43.3123,417.332 44,416.5C 45.7073,414.963 47.2073,413.296 48.5,411.5C 52.3164,409.29 56.3164,408.956 60.5,410.5 Z" /></g><g><path style="opacity:1" fill="#f3d7af" d="M 569.5,369.5 C 571.733,372.39 573.066,375.723 573.5,379.5C 575.391,397.687 569.391,412.52 555.5,424C 544.932,430.539 533.598,432.539 521.5,430C 516.251,427.873 510.918,426.04 505.5,424.5C 504.91,423.234 504.41,421.901 504,420.5C 493.864,410.23 488.697,397.897 488.5,383.5C 488.723,379.838 489.723,376.505 491.5,373.5C 489.051,387.478 491.551,400.478 499,412.5C 514.065,429.761 531.899,433.261 552.5,423C 570.554,409.331 576.221,391.497 569.5,369.5 Z" /></g><g><path style="opacity:1" fill="#d4c3b3" d="M 512.5,398.5 C 526.851,401.268 541.184,400.935 555.5,397.5C 557.117,396.962 558.784,396.629 560.5,396.5C 560.908,401.679 559.575,406.345 556.5,410.5C 555.844,409.722 555.011,409.056 554,408.5C 543.079,410.638 532.246,410.972 521.5,409.5C 525.833,409.5 530.167,409.5 534.5,409.5C 542.179,409.666 549.512,408.332 556.5,405.5C 557.747,403.677 558.414,401.677 558.5,399.5C 545.975,402.06 533.308,403.06 520.5,402.5C 519.167,402.5 517.833,402.5 516.5,402.5C 512.511,401.494 508.511,400.16 504.5,398.5C 503.612,405.615 506.946,408.948 514.5,408.5C 515.167,408.5 515.5,408.833 515.5,409.5C 511.821,409.276 508.154,408.942 504.5,408.5C 504.068,407.29 503.401,406.29 502.5,405.5C 502.037,402.518 501.704,399.518 501.5,396.5C 505.167,397.167 508.833,397.833 512.5,398.5 Z" /></g><g><path style="opacity:1" fill="#f9f9f9" d="M 516.5,402.5 C 517.833,402.5 519.167,402.5 520.5,402.5C 528.323,403.329 536.323,403.829 544.5,404C 541.942,407.362 538.609,409.195 534.5,409.5C 530.167,409.5 525.833,409.5 521.5,409.5C 519.5,409.5 517.5,409.5 515.5,409.5C 515.5,408.833 515.167,408.5 514.5,408.5C 513.737,407.732 512.737,407.232 511.5,407C 513.957,405.846 513.957,404.512 511.5,403C 513.134,402.506 514.801,402.34 516.5,402.5 Z" /></g><g><path style="opacity:1" fill="#efefee" d="M 534.5,409.5 C 538.609,409.195 541.942,407.362 544.5,404C 536.323,403.829 528.323,403.329 520.5,402.5C 533.308,403.06 545.975,402.06 558.5,399.5C 558.414,401.677 557.747,403.677 556.5,405.5C 549.512,408.332 542.179,409.666 534.5,409.5 Z" /></g><g><path style="opacity:1" fill="#ececeb" d="M 516.5,402.5 C 514.801,402.34 513.134,402.506 511.5,403C 513.957,404.512 513.957,405.846 511.5,407C 512.737,407.232 513.737,407.732 514.5,408.5C 506.946,408.948 503.612,405.615 504.5,398.5C 508.511,400.16 512.511,401.494 516.5,402.5 Z" /></g><g><path style="opacity:1" fill="#fdefbc" d="M 497.5,377.5 C 500.455,378.159 503.455,378.492 506.5,378.5C 509.268,381.771 512.268,384.938 515.5,388C 521.136,389.256 526.636,390.756 532,392.5C 537.424,390.436 542.924,388.602 548.5,387C 551.363,383.968 554.363,381.135 557.5,378.5C 560.214,378.25 562.881,378.083 565.5,378C 560.955,383.924 557.622,390.424 555.5,397.5C 541.184,400.935 526.851,401.268 512.5,398.5C 510.786,397.262 508.786,396.595 506.5,396.5C 505.969,393.763 505.136,391.096 504,388.5C 501.268,385.153 499.101,381.486 497.5,377.5 Z" /></g><g><path style="opacity:1" fill="#fef5bf" d="M 542.5,374.5 C 544.389,373.258 546.389,373.258 548.5,374.5C 552.321,375.226 556.321,375.226 560.5,374.5C 559.5,375.833 558.5,377.167 557.5,378.5C 554.363,381.135 551.363,383.968 548.5,387C 542.924,388.602 537.424,390.436 532,392.5C 526.636,390.756 521.136,389.256 515.5,388C 512.268,384.938 509.268,381.771 506.5,378.5C 508.435,379.15 510.435,379.483 512.5,379.5C 512.263,380.791 512.596,381.791 513.5,382.5C 514.462,386.146 516.795,387.313 520.5,386C 523.039,384.195 524.039,381.695 523.5,378.5C 523.369,377.761 523.536,377.094 524,376.5C 529.603,377.178 534.769,377.511 539.5,377.5C 538.66,386.53 541.827,388.53 549,383.5C 550.218,377.911 548.052,374.911 542.5,374.5 Z" /></g><g><path style="opacity:1" fill="#fde9ba" d="M 496.5,373.5 C 496.433,374.959 496.766,376.292 497.5,377.5C 499.101,381.486 501.268,385.153 504,388.5C 505.136,391.096 505.969,393.763 506.5,396.5C 508.786,396.595 510.786,397.262 512.5,398.5C 508.833,397.833 505.167,397.167 501.5,396.5C 501.704,399.518 502.037,402.518 502.5,405.5C 501.442,404.4 500.608,403.066 500,401.5C 497.937,395.64 496.27,389.64 495,383.5C 494.163,379.852 494.663,376.519 496.5,373.5 Z" /></g><g><path style="opacity:1" fill="#dbc9af" d="M 542.5,374.5 C 548.052,374.911 550.218,377.911 549,383.5C 541.827,388.53 538.66,386.53 539.5,377.5C 540.272,376.306 541.272,375.306 542.5,374.5 Z" /></g><g><path style="opacity:1" fill="#ddcaaf" d="M 522.5,378.5 C 522.833,378.5 523.167,378.5 523.5,378.5C 524.039,381.695 523.039,384.195 520.5,386C 516.795,387.313 514.462,386.146 513.5,382.5C 514.932,380.673 516.599,379.006 518.5,377.5C 519.5,378.167 520.5,378.833 521.5,379.5C 522.107,379.376 522.44,379.043 522.5,378.5 Z" /></g><g><path style="opacity:1" fill="#d3c2af" d="M 521.5,375.5 C 522.11,376.391 522.443,377.391 522.5,378.5C 522.44,379.043 522.107,379.376 521.5,379.5C 520.5,378.833 519.5,378.167 518.5,377.5C 516.599,379.006 514.932,380.673 513.5,382.5C 513.209,376.445 515.876,374.111 521.5,375.5 Z" /></g><g><path style="opacity:1" fill="#decbaf" d="M 504.5,408.5 C 508.154,408.942 511.821,409.276 515.5,409.5C 517.5,409.5 519.5,409.5 521.5,409.5C 532.246,410.972 543.079,410.638 554,408.5C 555.011,409.056 555.844,409.722 556.5,410.5C 554.167,413.167 551.833,415.833 549.5,418.5C 540.367,423.428 530.7,424.761 520.5,422.5C 513.636,419.639 508.303,414.972 504.5,408.5 Z" /></g><g><path style="opacity:1" fill="#e1cdaf" d="M 509.5,411.5 C 523.72,411.472 538.053,411.472 552.5,411.5C 546.809,417.928 539.643,421.261 531,421.5C 522.295,421.228 515.128,417.894 509.5,411.5 Z" /></g><g><path style="opacity:1" fill="#efd2b3" d="M 573.5,379.5 C 576.89,393.705 574.057,406.705 565,418.5C 547.927,435.061 528.76,437.894 507.5,427C 506.619,426.292 505.953,425.458 505.5,424.5C 510.918,426.04 516.251,427.873 521.5,430C 533.598,432.539 544.932,430.539 555.5,424C 569.391,412.52 575.391,397.687 573.5,379.5 Z" /></g><g><path style="opacity:0.02" fill="#fe0000" d="M 7.5,437.5 C 8.83333,438.167 8.83333,438.167 7.5,437.5 Z" /></g><g><path style="opacity:0.02" fill="#fe0000" d="M 483.5,437.5 C 484.833,438.167 484.833,438.167 483.5,437.5 Z" /></g></svg>