										<svg
											class="wave wave--bottom"
											width="304"
											height="24"
											viewBox="0 0 304 24"
											fill="none"
											xmlns="http://www.w3.org/2000/svg"
										>
											<path
												fill-rule="evenodd"
												clip-rule="evenodd"
												d="M304 12.6763L290.326 14.2222C276.652 15.7681 249.305 18.8599 221.957 16.541C196.563 14.2222 169.215 6.49266 141.868 5.71971C114.52 4.94676 87.1723 11.1304 59.8247 10.3574C32.4771 9.58446 5.12946 1.85497 -20.2648 0.309066C-47.6124 -1.23683 -74.9601 3.40086 -88.6339 5.71971L-102.308 8.03856V32H-88.6339C-74.9601 32 -47.6124 32 -20.2648 32C5.12946 32 32.4771 32 59.8247 32C87.1723 32 114.52 32 141.868 32C169.215 32 196.563 32 221.957 32C249.305 32 276.652 32 290.326 32H304V12.6763Z"
												fill="#F18C5C"
											/>
										</svg>