		<svg
											class="wave wave--top"
											width="304"
											height="24"
											viewBox="0 0 304 24"
											fill="none"
											xmlns="http://www.w3.org/2000/svg"
										>
											<path
												fill-rule="evenodd"
												clip-rule="evenodd"
												d="M406.308 9.39522L388.727 10.6171C373.1 11.839 337.939 14.2827 304.731 13.0609C271.523 11.839 236.362 6.95146 203.154 3.89676C169.946 0.231115 134.785 -0.990766 101.577 0.842055C68.3691 2.67488 33.2079 8.17334 17.5807 10.6171L6.10352e-05 13.0609V32H17.5807C33.2079 32 68.3691 32 101.577 32C134.785 32 169.946 32 203.154 32C236.362 32 271.523 32 304.731 32C337.939 32 373.1 32 388.727 32H406.308V9.39522Z"
												fill="#F18C5C"
											/>
											<path
												fill-rule="evenodd"
												clip-rule="evenodd"
												d="M406.308 9.39522L388.727 10.6171C373.1 11.839 337.939 14.2827 304.731 13.0609C271.523 11.839 236.362 6.95146 203.154 3.89676C169.946 0.231115 134.785 -0.990766 101.577 0.842055C68.3691 2.67488 33.2079 8.17334 17.5807 10.6171L6.10352e-05 13.0609V32H17.5807C33.2079 32 68.3691 32 101.577 32C134.785 32 169.946 32 203.154 32C236.362 32 271.523 32 304.731 32C337.939 32 373.1 32 388.727 32H406.308V9.39522Z"
												fill="white"
												fill-opacity="0.32"
											/>
										</svg>